<?xml version="1.0" standalone="no"?><!DOCTYPE svg PUBLIC "-//W3C//DTD SVG 1.1//EN" "http://www.w3.org/Graphics/SVG/1.1/DTD/svg11.dtd"><svg t="1611548944543" class="icon" viewBox="0 0 1024 1024" version="1.1" xmlns="http://www.w3.org/2000/svg" p-id="1859" xmlns:xlink="http://www.w3.org/1999/xlink" width="64" height="64"><defs><style type="text/css"></style></defs><path d="M512 1024C278.422069 1024 88.275862 834.206897 88.275862 600.805517 88.275862 503.172414 155.718621 375.702069 288.838621 222.455172 384.706207 111.933793 478.984828 28.954483 482.868966 25.6L512 0l29.131034 25.6c3.884138 3.531034 98.33931 86.510345 194.030345 196.855172C868.281379 375.702069 935.724138 503.172414 935.724138 600.805517 935.724138 834.206897 745.577931 1024 512 1024z m0-905.886897c-115.111724 106.813793-335.448276 340.744828-335.448276 482.692414C176.551724 785.478621 326.973793 935.724138 512 935.724138s335.448276-150.245517 335.448276-334.918621c0-141.947586-220.336552-375.702069-335.448276-482.692414z" fill="#dbdbdb" p-id="1860"></path><path d="M453.031724 763.056552c-0.353103-0.176552-0.529655-0.353103-0.882758-0.529655 16.595862-61.969655 33.191724-124.115862 49.787586-186.615173h-143.36c-0.353103-0.353103-0.706207-0.882759-1.059311-1.235862l218.217931-248.937931 1.059311 0.529655c-16.41931 61.793103-32.838621 123.586207-49.434483 186.262069h145.478621c-73.975172 84.391724-146.891034 167.371034-219.806897 250.526897z" fill="#dbdbdb" p-id="1861"></path></svg>